<svg height="241" width="209" xmlns="http://www.w3.org/2000/svg" viewBox="0 0 209 241"><path fill="#fff" fill-rule="evenodd" d="M106.32 8.64L11.95 58.8l-6.48 8.53.64 105.12 20.31 18.64 75.14 40.81 24.33-7.53 78.4-45.61-.92-113.08-97.05-57.04zm0 0"/><path stroke-width="10" stroke="#b72025" fill="none" d="M5.63 63.66L104.5 6.57l98.87 57.09v114.17l-98.87 57.09-98.87-57.09V63.66zm0 0"/><path stroke-width="3" stroke="#2b3990" fill="none" d="M63.35 194.48L104.33 218l41.08-23.52"/><path stroke-width="3" stroke="#2b3990" fill="none" d="M86 194.48L104.33 218l18.42-23.52M104.38 194.8v22.88M145.41 45.98l-40.99-23.52-41.07 23.52"/><path stroke-width="3" stroke="#2b3990" fill="none" d="M122.75 45.98l-18.33-23.52L86 45.98M104.38 45.66V22.78"/><path fill="#2b3990" fill-rule="evenodd" d="M60.32 193.81a1.06 1.06 0 0 0 0-2.12c-.59 0-1.07.47-1.07 1.06 0 .59.48 1.06 1.07 1.06zm0 0M148.65 193.81c.59 0 1.07-.47 1.07-1.06 0-.59-.48-1.06-1.07-1.06-.59 0-1.06.47-1.06 1.06 0 .59.47 1.06 1.06 1.06zm0 0M81.16 192.98l-.01-.02a.923.923 0 0 1-.16-.62l.44-4.6-2.11 1.49a.56.56 0 0 1-.78-.13.584.584 0 0 1 .14-.79l3.02-2.14c.25-.18.61-.11.79.14l.01.02c.13.18.18.38.16.62l-.44 4.6 2.19-1.55c.25-.18.61-.12.79.13.17.25.11.6-.14.78l-3.11 2.2c-.25.18-.61.12-.79-.13zm0 0M101.74 185.58v-.02c0-1.65 1.29-3 3.04-3 .88 0 1.46.2 1.99.56.12.09.26.27.26.52 0 .35-.28.63-.63.63-.18 0-.3-.07-.39-.13-.35-.25-.72-.4-1.27-.4-.93 0-1.66.82-1.66 1.81v.01c0 1.06.73 1.84 1.75 1.84.47 0 .88-.11 1.21-.34v-.83h-.87c-.3 0-.55-.24-.55-.55 0-.31.25-.56.55-.56h1.46c.36 0 .64.29.64.64v1.41c0 .38-.14.63-.45.82-.47.29-1.16.58-2.03.58-1.81-.01-3.05-1.27-3.05-2.99zm0 0M126.31 186.33c.21-.29.6-.34.89-.13l1.64 1.24c.53.4.84.86.91 1.32.05.37-.04.71-.28 1.03l-.01.01c-.39.53-.89.61-1.36.55.38.61.48 1.17.01 1.79l-.01.01c-.64.85-1.65.76-2.7-.03l-1.69-1.28a.629.629 0 0 1-.13-.89l2.73-3.62zm.9 2.82c.45.34.85.41 1.11.06l.01-.01c.23-.31.12-.66-.31-.98l-1.01-.76-.74.98.94.71zm-1.13 2.07c.45.34.84.39 1.1.04l.01-.01c.23-.31.15-.68-.38-1.07l-1.18-.89-.76 1.02 1.21.91zm0 0M68.69 63.7c0-.41.32-.73.73-.73h.16c.35 0 .56.17.76.43l2.84 3.73v-3.46c0-.4.33-.72.73-.72.4 0 .73.32.73.72V69c0 .42-.33.74-.74.74h-.05c-.35 0-.56-.17-.76-.43l-2.95-3.87v3.59a.726.726 0 0 1-1.45 0V63.7zm0 0M76.28 66.37v-.02c0-1.9 1.5-3.46 3.57-3.46s3.55 1.54 3.55 3.44v.02c0 1.91-1.5 3.47-3.57 3.47-2.06 0-3.55-1.54-3.55-3.45zm5.58 0v-.02c0-1.14-.84-2.1-2.03-2.1-1.18 0-2.01.94-2.01 2.08v.02c0 1.15.85 2.11 2.03 2.11 1.19 0 2.01-.94 2.01-2.09zm0 0M85.05 63.74c0-.41.32-.73.73-.73h1.88c2.1 0 3.56 1.44 3.56 3.32v.02c0 1.89-1.46 3.35-3.56 3.35h-1.88c-.41 0-.73-.32-.73-.73v-5.23zm2.61 4.63c1.2 0 2.02-.81 2.02-2v-.02c0-1.18-.82-2.01-2.02-2.01h-1.14v4.03h1.14zm0 0M92.86 68.97v-5.23c0-.41.33-.73.74-.73h3.71c.36 0 .66.29.66.66 0 .36-.3.65-.66.65h-2.98v1.35h2.55a.66.66 0 1 1 0 1.32h-2.55v1.4h3.03c.36 0 .66.3.66.66 0 .37-.3.65-.66.65H93.6a.73.73 0 0 1-.74-.73zm0 0M99.47 68.99a.672.672 0 0 1-.27-.55c0-.38.3-.68.69-.68.19 0 .32.07.42.13.5.38 1.06.61 1.71.61.6 0 .97-.24.97-.63v-.02c0-.38-.23-.57-1.35-.85-1.35-.35-2.22-.72-2.22-2.05v-.02c0-1.22.97-2.02 2.34-2.02.81 0 1.52.21 2.13.59.16.1.32.3.32.59 0 .38-.31.68-.69.68a.67.67 0 0 1-.37-.11c-.49-.29-.95-.45-1.41-.45-.56 0-.86.26-.86.58v.02c0 .44.29.59 1.45.88 1.35.36 2.12.85 2.12 2.01v.02c0 1.33-1.01 2.08-2.46 2.08-.88 0-1.77-.27-2.52-.81zm0 0M105.77 66.37v-.02c0-1.9 1.43-3.46 3.49-3.46 1.01 0 1.68.27 2.24.68.15.11.29.32.29.58 0 .41-.33.72-.73.72-.2 0-.34-.08-.44-.14-.41-.31-.84-.48-1.37-.48-1.13 0-1.94.94-1.94 2.08v.02c0 1.15.79 2.11 1.94 2.11.62 0 1.03-.19 1.45-.53.12-.09.27-.16.44-.16.38 0 .69.31.69.68 0 .23-.11.41-.25.53-.6.52-1.31.84-2.38.84-1.97 0-3.43-1.52-3.43-3.45zm0 0M113.46 63.68c0-.41.33-.73.74-.73s.73.32.73.73v1.98h2.72v-1.98c0-.41.33-.73.74-.73s.73.32.73.73v5.34c0 .41-.32.74-.73.74s-.74-.33-.74-.74v-2.01h-2.72v2.01c0 .41-.32.74-.73.74s-.74-.33-.74-.74v-5.34zm0 0M120.77 66.37v-.02c0-1.9 1.5-3.46 3.57-3.46s3.55 1.54 3.55 3.44v.02c0 1.91-1.5 3.47-3.57 3.47s-3.55-1.54-3.55-3.45zm5.58 0v-.02c0-1.14-.84-2.1-2.03-2.1s-2.01.94-2.01 2.08v.02c0 1.15.84 2.11 2.03 2.11s2.01-.94 2.01-2.09zm0 0M129.24 66.37v-.02c0-1.9 1.5-3.46 3.57-3.46 2.06 0 3.55 1.54 3.55 3.44v.02c0 1.91-1.51 3.47-3.57 3.47-2.07 0-3.55-1.54-3.55-3.45zm5.58 0v-.02c0-1.14-.85-2.1-2.03-2.1-1.19 0-2.01.94-2.01 2.08v.02c0 1.15.84 2.11 2.03 2.11 1.18 0 2.01-.94 2.01-2.09zm0 0M138 63.68c0-.41.33-.73.74-.73s.73.32.73.73v4.68h2.73c.37 0 .67.3.67.67 0 .38-.3.67-.67.67h-3.46c-.42 0-.74-.32-.74-.73v-5.29zm0 0"/><path stroke-width="3.75" stroke="#2b3990" fill="none" d="M129.09 79.2l-6.29 40.68v40.11h13.18v-40.11l-6.89-40.68zm0 0M153.55 79.2l-6.29 40.68v40.11h13.18v-40.11l-6.89-40.68zm0 0M135.98 135.31l5.53-10.29 5.75 10.29"/><path stroke-width="3.5" stroke="#2b3990" fill="none" d="M26.69 168.48c7.05 0 7.05 5.11 14.1 5.11 7.04 0 7.04-5.11 14.09-5.11s7.05 5.11 14.1 5.11 7.05-5.11 14.09-5.11c7.05 0 7.05 5.11 14.1 5.11s7.05-5.11 14.1-5.11 7.05 5.11 14.1 5.11 7.05-5.11 14.1-5.11 7.05 5.11 14.1 5.11 7.05-5.11 14.1-5.11 7.05 5.11 14.1 5.11"/><path stroke-width="4" stroke="#2b3990" fill="none" d="M181.77 159.99h-155"/><path fill="#2b3990" fill-rule="evenodd" d="M129.39 116.56c1.16 0 2.11-.94 2.11-2.11 0-1.16-.95-2.1-2.11-2.1a2.104 2.104 0 1 0 0 4.21zm0 0M127.57 126.47c.6 0 1.1-.49 1.1-1.1a1.105 1.105 0 0 0-2.21 0c0 .61.5 1.1 1.11 1.1zm0 0M131.21 126.47c.61 0 1.1-.49 1.1-1.1 0-.61-.49-1.1-1.1-1.1-.61 0-1.1.49-1.1 1.1 0 .61.49 1.1 1.1 1.1zm0 0M153.85 116.56c1.16 0 2.1-.94 2.1-2.11a2.1 2.1 0 0 0-2.1-2.1 2.104 2.104 0 1 0 0 4.21zm0 0M141.62 147.03a2.42 2.42 0 0 0 2.42-2.41c0-1.34-1.09-2.42-2.42-2.42a2.416 2.416 0 1 0 0 4.83zm0 0M127.57 150.96h3.64v9.03h-3.64v-9.03zm0 0M139.8 154.41h3.64v5.58h-3.64v-5.58zm0 0M128.29 145.62h2.2v3.05h-2.2v-3.05zm0 0M128.29 140.67h2.2v3.05h-2.2v-3.05zm0 0"/><path fill="#2b3990" fill-rule="evenodd" d="M126.47 125.37h2.2v9.76h-2.2v-9.76zm0 0M130.11 125.37h2.2v9.76h-2.2v-9.76zm0 0M152.03 126.47c.6 0 1.1-.49 1.1-1.1 0-.61-.5-1.1-1.1-1.1-.61 0-1.1.49-1.1 1.1 0 .61.49 1.1 1.1 1.1zm0 0M155.67 126.47c.61 0 1.1-.49 1.1-1.1 0-.61-.49-1.1-1.1-1.1-.61 0-1.1.49-1.1 1.1 0 .61.49 1.1 1.1 1.1zm0 0"/><path fill="#2b3990" fill-rule="evenodd" d="M150.93 125.37h2.2v9.76h-2.2v-9.76zm0 0M154.57 125.37h2.2v9.76h-2.2v-9.76zm0 0M152.75 145.62h2.2v3.05h-2.2v-3.05zm0 0M152.75 140.67h2.2v3.05h-2.2v-3.05zm0 0M152.03 150.96h3.64v9.03h-3.64v-9.03zm0 0M141.62 150.91c1.84.23 1.82 3.5 1.82 3.5h-1.82M141.62 150.91c-1.84.23-1.82 3.5-1.82 3.5h1.82"/><path stroke-width="4" stroke="#2b3990" fill="none" d="M26.77 113.96l9.93-3.62L49.96 99.4h10.89l17.59-8.48H86l12.19 2.54 9.08 3.42 15.53 2.52 2.56.61M133.85 101.57l7.77 3.07 7.03 2.74M160.08 112.68l7.23 3.57 14.46-3.36"/><path fill="#2b3990" fill-rule="evenodd" d="M84.55 159.25c1.12-2.49 1.72-4.26 2.02-5.9.29-1.64.29-3.07.29-4.83 0-.69.01-1.49.01-2.35 0-1.71-.05-3.68-.36-5.65-.33-1.97-.91-3.95-2.06-5.68a1.274 1.274 0 0 0-2.12 1.41c.86 1.3 1.38 2.94 1.66 4.68.28 1.74.33 3.58.33 5.24 0 .84-.01 1.63-.01 2.35 0 1.78 0 3.01-.25 4.37-.25 1.36-.76 2.92-1.84 5.32-.28.64 0 1.39.64 1.68.65.29 1.4 0 1.69-.64zm0 0M76.37 136.25c.25.39.52 1.02.72 1.8.31 1.17.49 2.65.6 4.14.1 1.49.12 2.99.12 4.24 0 .83-.01 1.55-.01 2.1 0 1.33 0 2.94-.2 4.65-.19 1.71-.58 3.51-1.34 5.18a1.279 1.279 0 0 0 2.33 1.05c.9-2 1.33-4.05 1.55-5.94.21-1.88.21-3.61.21-4.94 0-.52.01-1.25.01-2.1 0-1.7-.04-3.9-.27-6-.12-1.05-.29-2.08-.53-3.02-.25-.95-.58-1.82-1.07-2.57a1.274 1.274 0 0 0-2.12 1.41zm0 0M70.41 136.25c.02.03.1.19.17.45.14.44.27 1.13.37 1.94.3 2.43.35 5.87.35 8.05 0 .83-.01 1.48-.01 1.85 0 .88 0 2.87-.13 4.91-.07 1.03-.17 2.06-.32 2.97-.14.9-.34 1.67-.53 2.1-.29.64-.01 1.39.64 1.68.64.29 1.39.01 1.68-.64.36-.79.57-1.72.73-2.74.25-1.53.37-3.25.43-4.77.05-1.52.05-2.84.05-3.51 0-.34.01-1.01.01-1.85 0-1.69-.02-4.12-.18-6.35-.08-1.12-.18-2.19-.35-3.11-.08-.46-.17-.89-.3-1.28-.12-.4-.26-.76-.49-1.11-.39-.59-1.18-.75-1.77-.36-.58.39-.74 1.19-.35 1.77zm0 0M64.45 136.25l.63-.42-.71.29c.01.02.03.06.08.13l.63-.42-.71.29.23-.09-.23.08v.01l.23-.09-.23.08s.05.21.09.48c.07.48.13 1.22.17 2.07.14 2.57.16 6.2.16 8.29 0 .83-.01 1.41-.01 1.6 0 .44 0 2.78-.07 5.16-.03 1.19-.08 2.38-.15 3.33-.04.48-.09.89-.13 1.2-.02.15-.05.27-.07.36l-.02.08v.01l.29.11-.28-.13-.01.02.29.11-.28-.13a1.273 1.273 0 1 0 2.32 1.05c.09-.2.14-.37.18-.55.08-.33.13-.69.17-1.12.16-1.46.24-3.63.28-5.56.04-1.92.04-3.58.04-3.94v-1.6c0-1.68-.01-4.35-.09-6.72-.04-1.18-.09-2.28-.17-3.17a14.2 14.2 0 0 0-.15-1.17c-.03-.17-.06-.33-.11-.49-.05-.16-.09-.32-.25-.56-.39-.59-1.18-.75-1.77-.36-.58.39-.74 1.19-.35 1.77zm0 0M58.27 135.55v23.8c0 .71.57 1.28 1.28 1.28.7 0 1.28-.57 1.28-1.28v-23.8c0-.71-.58-1.28-1.28-1.28-.7 0-1.28.57-1.28 1.28M34.76 135.02c-1.12 2.49-1.72 4.27-2.02 5.9-.3 1.64-.29 3.07-.29 4.83 0 .7-.02 1.49-.02 2.35 0 1.72.05 3.68.37 5.65.32 1.97.91 3.96 2.06 5.68.39.59 1.18.75 1.77.36.58-.39.74-1.18.35-1.77-.86-1.3-1.38-2.93-1.66-4.68-.28-1.74-.34-3.57-.34-5.24 0-.83.02-1.62.02-2.35 0-1.78 0-3.01.25-4.37.25-1.36.76-2.92 1.83-5.31a1.273 1.273 0 1 0-2.32-1.05zm0 0M40.67 135.01c-.9 1.99-1.33 4.04-1.55 5.93-.22 1.89-.22 3.61-.22 4.95 0 .51-.01 1.24-.01 2.09.01 1.71.04 3.9.28 6 .11 1.05.28 2.08.53 3.03.25.95.57 1.82 1.07 2.57.39.58 1.18.74 1.77.35.58-.39.74-1.18.35-1.77-.26-.38-.52-1.02-.72-1.8-.31-1.17-.5-2.65-.6-4.14-.1-1.49-.12-2.99-.12-4.24 0-.83.01-1.55.01-2.09 0-1.33 0-2.95.19-4.66.2-1.71.59-3.5 1.34-5.18.29-.64 0-1.39-.64-1.68-.64-.29-1.4-.01-1.68.64zm0 0M46.57 134.99c-.35.79-.56 1.72-.73 2.74-.24 1.53-.36 3.25-.42 4.78-.06 1.52-.06 2.84-.06 3.51 0 .34-.01 1-.01 1.85 0 1.69.03 4.12.18 6.35.08 1.11.19 2.18.35 3.1.08.47.18.89.3 1.29.12.39.26.75.49 1.1a1.277 1.277 0 1 0 2.13-1.41 1.61 1.61 0 0 1-.18-.44c-.14-.44-.27-1.14-.37-1.94-.3-2.43-.35-5.87-.34-8.05v-1.86c0-.88 0-2.86.14-4.91.06-1.02.16-2.06.31-2.96.14-.9.34-1.68.54-2.1a1.279 1.279 0 0 0-2.33-1.05zm0 0M52.48 134.97c-.09.21-.13.37-.18.55-.07.33-.12.69-.17 1.12-.16 1.47-.23 3.64-.27 5.56-.04 1.92-.04 3.58-.04 3.95 0 .17-.01.76-.01 1.6 0 1.68.02 4.35.09 6.71.04 1.18.09 2.29.17 3.17.04.45.09.83.15 1.17.03.17.06.33.11.49.05.16.1.32.25.57.39.58 1.18.74 1.77.35.59-.39.75-1.18.35-1.77l-.63.42.71-.29c-.01-.01-.03-.05-.08-.13l-.63.42.71-.29-.23.1.23-.08v-.02l-.23.1.23-.08c0-.01-.05-.21-.09-.48-.07-.48-.13-1.22-.17-2.07-.14-2.57-.16-6.21-.16-8.29 0-.84.01-1.42.01-1.6 0-.44 0-2.79.07-5.16.03-1.19.08-2.39.16-3.34.03-.47.08-.88.12-1.19.02-.15.05-.28.07-.36l.02-.09V136l-.29-.11.28.13.01-.02-.29-.11.28.13a1.274 1.274 0 0 0-2.32-1.05zm0 0"/><path fill="#2b3990" fill-rule="evenodd" d="M58.27 135.48v23.81a1.28 1.28 0 0 0 2.56 0v-23.81a1.28 1.28 0 0 0-2.56 0"/><path stroke-width="3.5" stroke="#2b3990" fill="none" d="M70.92 119.92v-11.27h8.09v6.17h8.2l3.27-5.32 2.63 5.32h7.36v5.9"/><path stroke-width="3.5" stroke="#2b3990" fill="none" d="M62.61 120.72l4.62-.45 5.65 1.59 5.8-2.59 3.37 2.59 2.98-1.3 3.59 1.3 4.68-2.59 2.51 2.59 8.65-1.59 2.64.45M85.3 81.61v9.31M163.85 81.61c5.09 0 6.53 4.65 6.53 4.65s1.95-4.65 6.95-4.65M170.88 93.48c3.96 0 5.08 3.61 5.08 3.61s1.51-3.61 5.39-3.61"/></svg>