<svg width="212" height="202" viewBox="0 0 212 202" xmlns="http://www.w3.org/2000/svg" xmlns:xlink="http://www.w3.org/1999/xlink"><title>Buck Copy 3 + Polygon 1 Copy Copy Copy</title><defs><linearGradient x1="50%" y1="0%" x2="50%" y2="100%" id="linearGradient-1"><stop stop-color="#FFF" offset="0%"/><stop stop-color="#69D2E7" offset="100%"/></linearGradient><path id="path-2" d="M16 149l75-49 98 49-84.5 61"/><path id="path-3" d="M54.194 146.31c6.064-2.835 12.522-11.11 17.988-21.033l-17.988-14"/></defs><g id="Page-1" fill="none" fill-rule="evenodd"><g id="Buck-Copy-3-+-Polygon-1-Copy-Copy-Copy"><path id="Polygon-1-Copy-2" fill-opacity=".4" fill="url(#linearGradient-1)" transform="rotate(-180 106.5 97)" d="M106 4l96.057 69.79-36.69 112.92H46.633L9.944 73.79z"/><path d="M5 142l100-97 101 97-101 66" id="Path-117-Copy-2" fill="#A8DBA8" transform="translate(1 -16)"/><g id="Path-117-Copy" transform="translate(1 -16)"><use fill="#92C092" xlink:href="#path-2"/><use xlink:href="#path-2"/></g><path d="M61 178l57-41 58 22-71 53" id="Path-117" fill="#749974" transform="translate(1 -16)"/><path id="Polygon-1" stroke="#6D6875" stroke-width="10" d="M106 195L6.14 122.447 44.282 5.053h123.434l38.144 117.394z"/><g id="Buck-Copy-7"><path d="M34.118 122.219h20V161l-21.765-19.39 1.765-19.391zm40 0h-20V161l21.764-19.39-1.764-19.391z" id="Rectangle-10" fill="#6D6875" transform="translate(51 18)"/><g id="right-horn" stroke="#6D6875" stroke-width="10" stroke-linecap="round"><path d="M.417 80.5l37.059-27.03V21.133L16.636.315" id="Path-8" stroke-linejoin="bevel" transform="translate(113.353 18)"/><path d="M24.118 60.522L6.314 42.738" id="Path-9" transform="translate(113.353 18)"/><path d="M11.176 22.035H37.06" id="Path-10" transform="translate(113.353 18)"/></g><g id="right-horn-copy" stroke="#6D6875" stroke-width="10" stroke-linecap="round"><path d="M.417 80.5l37.059-27.03V21.133L16.636.315" id="Path-8" stroke-linejoin="bevel" transform="matrix(-1 0 0 1 99.824 18)"/><path d="M24.118 60.522L6.314 42.738" id="Path-9" transform="matrix(-1 0 0 1 99.824 18)"/><path d="M11.176 22.035H37.06" id="Path-10" transform="matrix(-1 0 0 1 99.824 18)"/></g><path d="M54.194 146.31c-6.128-2.864-12.657-11.283-18.159-21.344l17.874-13.911.285.222" id="Path" fill="#6D6875" transform="translate(51 18)"/><g id="Path" transform="translate(51 18)"><use fill="#6D6875" xlink:href="#path-3"/><use xlink:href="#path-3"/></g><path d="M54.113 64.049C31.166 72.057 22.932 75.617 21.16 90.872c-.713 13.22 17.351 44.616 32.95 50.147.003.002.006 0 .009 0-.003.002-.006 0-.01 0l.005-76.97zm.01.274c22.946 8.008 31.18 11.568 32.953 26.824.714 13.22-17.351 44.615-32.95 50.146-.002.002-.005.001-.008 0 .003.002.006.001.009 0l-.005-76.97z" id="Head-Copy" fill="#6D6875" transform="translate(51 18)"/><g id="ears-copy" fill="#6D6875"><path d="M80.827 17.611S97.729.151 98.505 3.404c7.99 42.235-15.817 24.649-17.678 26.163-1.86 1.514 0-11.956 0-11.956z" id="right-ear" transform="rotate(45 11.405 122.886)"/><path d="M8.827 17.611S25.729.151 26.505 3.404c7.99 42.235-15.817 24.649-17.678 26.163-1.86 1.514 0-11.956 0-11.956z" id="right-ear-copy-2" transform="scale(-1 1) rotate(45 -130.165 -45.07)"/></g></g></g></g></svg>