<?xml version="1.0" encoding="utf-8"?>
<!-- Generator: Avocode 2.6.0 - http://avocode.com -->
<svg height="241" width="209" xmlns:xlink="http://www.w3.org/1999/xlink" xmlns="http://www.w3.org/2000/svg" viewBox="0 0 209 241">
    <path fill="#ffffff" fill-rule="evenodd" d="M 106.32 8.64 L 11.95 58.8 L 5.47 67.33 L 6.11 172.45 L 26.42 191.09 L 101.56 231.9 L 125.89 224.37 L 204.29 178.76 L 203.37 65.68 L 106.32 8.64 Z M 106.32 8.64" />
    <path stroke-linejoin="miter" stroke-linecap="butt" stroke-width="10" stroke="#b72025" fill="none" fill-rule="evenodd" d="M 5.63 63.66 L 104.5 6.57 L 203.37 63.66 L 203.37 177.83 L 104.5 234.92 L 5.63 177.83 L 5.63 63.66 Z M 5.63 63.66" />
    <path stroke-linejoin="miter" stroke-linecap="butt" stroke-width="3" stroke="#2b3990" fill="none" fill-rule="evenodd" d="M 63.35 194.48 L 104.33 218 L 145.41 194.48" />
    <path stroke-linejoin="miter" stroke-linecap="butt" stroke-width="3" stroke="#2b3990" fill="none" fill-rule="evenodd" d="M 86 194.48 L 104.33 218 L 122.75 194.48" />
    <path stroke-linejoin="miter" stroke-linecap="butt" stroke-width="3" stroke="#2b3990" fill="none" fill-rule="evenodd" d="M 104.38 194.8 L 104.38 217.68" />
    <path stroke-linejoin="miter" stroke-linecap="butt" stroke-width="3" stroke="#2b3990" fill="none" fill-rule="evenodd" d="M 145.41 45.98 L 104.42 22.46 L 63.35 45.98" />
    <path stroke-linejoin="miter" stroke-linecap="butt" stroke-width="3" stroke="#2b3990" fill="none" fill-rule="evenodd" d="M 122.75 45.98 L 104.42 22.46 L 86 45.98" />
    <path stroke-linejoin="miter" stroke-linecap="butt" stroke-width="3" stroke="#2b3990" fill="none" fill-rule="evenodd" d="M 104.38 45.66 L 104.38 22.78" />
    <path fill="#2b3990" fill-rule="evenodd" d="M 60.32 193.81 C 60.9 193.81 61.38 193.34 61.38 192.75 C 61.38 192.16 60.9 191.69 60.32 191.69 C 59.73 191.69 59.25 192.16 59.25 192.75 C 59.25 193.34 59.73 193.81 60.32 193.81 Z M 60.32 193.81" />
    <path fill="#2b3990" fill-rule="evenodd" d="M 148.65 193.81 C 149.24 193.81 149.72 193.34 149.72 192.75 C 149.72 192.16 149.24 191.69 148.65 191.69 C 148.06 191.69 147.59 192.16 147.59 192.75 C 147.59 193.34 148.06 193.81 148.65 193.81 Z M 148.65 193.81" />
    <path fill="#2b3990" fill-rule="evenodd" d="M 81.16 192.98 L 81.15 192.96 C 81.02 192.77 80.97 192.56 80.99 192.34 L 81.43 187.74 L 79.32 189.23 C 79.07 189.41 78.72 189.35 78.54 189.1 C 78.37 188.85 78.43 188.49 78.68 188.31 L 81.7 186.17 C 81.95 185.99 82.31 186.06 82.49 186.31 L 82.5 186.33 C 82.63 186.51 82.68 186.71 82.66 186.95 L 82.22 191.55 L 84.41 190 C 84.66 189.82 85.02 189.88 85.2 190.13 C 85.37 190.38 85.31 190.73 85.06 190.91 L 81.95 193.11 C 81.7 193.29 81.34 193.23 81.16 192.98 L 81.16 192.98 Z M 81.16 192.98" />
    <path fill="#2b3990" fill-rule="evenodd" d="M 101.74 185.58 L 101.74 185.56 C 101.74 183.91 103.03 182.56 104.78 182.56 C 105.66 182.56 106.24 182.76 106.77 183.12 C 106.89 183.21 107.03 183.39 107.03 183.64 C 107.03 183.99 106.75 184.27 106.4 184.27 C 106.22 184.27 106.1 184.2 106.01 184.14 C 105.66 183.89 105.29 183.74 104.74 183.74 C 103.81 183.74 103.08 184.56 103.08 185.55 L 103.08 185.56 C 103.08 186.62 103.81 187.4 104.83 187.4 C 105.3 187.4 105.71 187.29 106.04 187.06 L 106.04 186.23 L 105.17 186.23 C 104.87 186.23 104.62 185.99 104.62 185.68 C 104.62 185.37 104.87 185.12 105.17 185.12 L 106.63 185.12 C 106.99 185.12 107.27 185.41 107.27 185.76 L 107.27 187.17 C 107.27 187.55 107.13 187.8 106.82 187.99 C 106.35 188.28 105.66 188.57 104.79 188.57 C 102.98 188.56 101.74 187.3 101.74 185.58 L 101.74 185.58 Z M 101.74 185.58" />
    <path fill="#2b3990" fill-rule="evenodd" d="M 126.31 186.33 C 126.52 186.04 126.91 185.99 127.2 186.2 L 128.84 187.44 C 129.37 187.84 129.68 188.3 129.75 188.76 C 129.8 189.13 129.71 189.47 129.47 189.79 L 129.46 189.8 C 129.07 190.33 128.57 190.41 128.1 190.35 C 128.48 190.96 128.58 191.52 128.11 192.14 L 128.1 192.15 C 127.46 193 126.45 192.91 125.4 192.12 L 123.71 190.84 C 123.42 190.63 123.37 190.23 123.58 189.95 L 126.31 186.33 L 126.31 186.33 Z M 127.21 189.15 C 127.66 189.49 128.06 189.56 128.32 189.21 L 128.33 189.2 C 128.56 188.89 128.45 188.54 128.02 188.22 L 127.01 187.46 L 126.27 188.44 L 127.21 189.15 L 127.21 189.15 Z M 126.08 191.22 C 126.53 191.56 126.92 191.61 127.18 191.26 L 127.19 191.25 C 127.42 190.94 127.34 190.57 126.81 190.18 L 125.63 189.29 L 124.87 190.31 L 126.08 191.22 L 126.08 191.22 Z M 126.08 191.22" />
    <path fill="#2b3990" fill-rule="evenodd" d="M 68.69 63.7 C 68.69 63.29 69.01 62.97 69.42 62.97 L 69.58 62.97 C 69.93 62.97 70.14 63.14 70.34 63.4 L 73.18 67.13 L 73.18 63.67 C 73.18 63.27 73.51 62.95 73.91 62.95 C 74.31 62.95 74.64 63.27 74.64 63.67 L 74.64 69 C 74.64 69.42 74.31 69.74 73.9 69.74 L 73.85 69.74 C 73.5 69.74 73.29 69.57 73.09 69.31 L 70.14 65.44 L 70.14 69.03 C 70.14 69.43 69.82 69.76 69.41 69.76 C 69.01 69.76 68.69 69.43 68.69 69.03 L 68.69 63.7 L 68.69 63.7 Z M 68.69 63.7" />
    <path fill="#2b3990" fill-rule="evenodd" d="M 76.28 66.37 L 76.28 66.35 C 76.28 64.45 77.78 62.89 79.85 62.89 C 81.92 62.89 83.4 64.43 83.4 66.33 L 83.4 66.35 C 83.4 68.26 81.9 69.82 79.83 69.82 C 77.77 69.82 76.28 68.28 76.28 66.37 L 76.28 66.37 Z M 81.86 66.37 L 81.86 66.35 C 81.86 65.21 81.02 64.25 79.83 64.25 C 78.65 64.25 77.82 65.19 77.82 66.33 L 77.82 66.35 C 77.82 67.5 78.67 68.46 79.85 68.46 C 81.04 68.46 81.86 67.52 81.86 66.37 L 81.86 66.37 Z M 81.86 66.37" />
    <path fill="#2b3990" fill-rule="evenodd" d="M 85.05 63.74 C 85.05 63.33 85.37 63.01 85.78 63.01 L 87.66 63.01 C 89.76 63.01 91.22 64.45 91.22 66.33 L 91.22 66.35 C 91.22 68.24 89.76 69.7 87.66 69.7 L 85.78 69.7 C 85.37 69.7 85.05 69.38 85.05 68.97 L 85.05 63.74 L 85.05 63.74 Z M 87.66 68.37 C 88.86 68.37 89.68 67.56 89.68 66.37 L 89.68 66.35 C 89.68 65.17 88.86 64.34 87.66 64.34 L 86.52 64.34 L 86.52 68.37 L 87.66 68.37 L 87.66 68.37 Z M 87.66 68.37" />
    <path fill="#2b3990" fill-rule="evenodd" d="M 92.86 68.97 L 92.86 63.74 C 92.86 63.33 93.19 63.01 93.6 63.01 L 97.31 63.01 C 97.67 63.01 97.97 63.3 97.97 63.67 C 97.97 64.03 97.67 64.32 97.31 64.32 L 94.33 64.32 L 94.33 65.67 L 96.88 65.67 C 97.24 65.67 97.54 65.97 97.54 66.33 C 97.54 66.7 97.24 66.99 96.88 66.99 L 94.33 66.99 L 94.33 68.39 L 97.36 68.39 C 97.72 68.39 98.02 68.69 98.02 69.05 C 98.02 69.42 97.72 69.7 97.36 69.7 L 93.6 69.7 C 93.19 69.7 92.86 69.38 92.86 68.97 L 92.86 68.97 Z M 92.86 68.97" />
    <path fill="#2b3990" fill-rule="evenodd" d="M 99.47 68.99 C 99.31 68.88 99.2 68.67 99.2 68.44 C 99.2 68.06 99.5 67.76 99.89 67.76 C 100.08 67.76 100.21 67.83 100.31 67.89 C 100.81 68.27 101.37 68.5 102.02 68.5 C 102.62 68.5 102.99 68.26 102.99 67.87 L 102.99 67.85 C 102.99 67.47 102.76 67.28 101.64 67 C 100.29 66.65 99.42 66.28 99.42 64.95 L 99.42 64.93 C 99.42 63.71 100.39 62.91 101.76 62.91 C 102.57 62.91 103.28 63.12 103.89 63.5 C 104.05 63.6 104.21 63.8 104.21 64.09 C 104.21 64.47 103.9 64.77 103.52 64.77 C 103.38 64.77 103.26 64.73 103.15 64.66 C 102.66 64.37 102.2 64.21 101.74 64.21 C 101.18 64.21 100.88 64.47 100.88 64.79 L 100.88 64.81 C 100.88 65.25 101.17 65.4 102.33 65.69 C 103.68 66.05 104.45 66.54 104.45 67.7 L 104.45 67.72 C 104.45 69.05 103.44 69.8 101.99 69.8 C 101.11 69.8 100.22 69.53 99.47 68.99 L 99.47 68.99 Z M 99.47 68.99" />
    <path fill="#2b3990" fill-rule="evenodd" d="M 105.77 66.37 L 105.77 66.35 C 105.77 64.45 107.2 62.89 109.26 62.89 C 110.27 62.89 110.94 63.16 111.5 63.57 C 111.65 63.68 111.79 63.89 111.79 64.15 C 111.79 64.56 111.46 64.87 111.06 64.87 C 110.86 64.87 110.72 64.79 110.62 64.73 C 110.21 64.42 109.78 64.25 109.25 64.25 C 108.12 64.25 107.31 65.19 107.31 66.33 L 107.31 66.35 C 107.31 67.5 108.1 68.46 109.25 68.46 C 109.87 68.46 110.28 68.27 110.7 67.93 C 110.82 67.84 110.97 67.77 111.14 67.77 C 111.52 67.77 111.83 68.08 111.83 68.45 C 111.83 68.68 111.72 68.86 111.58 68.98 C 110.98 69.5 110.27 69.82 109.2 69.82 C 107.23 69.82 105.77 68.3 105.77 66.37 L 105.77 66.37 Z M 105.77 66.37" />
    <path fill="#2b3990" fill-rule="evenodd" d="M 113.46 63.68 C 113.46 63.27 113.79 62.95 114.2 62.95 C 114.61 62.95 114.93 63.27 114.93 63.68 L 114.93 65.66 L 117.65 65.66 L 117.65 63.68 C 117.65 63.27 117.98 62.95 118.39 62.95 C 118.8 62.95 119.12 63.27 119.12 63.68 L 119.12 69.02 C 119.12 69.43 118.8 69.76 118.39 69.76 C 117.98 69.76 117.65 69.43 117.65 69.02 L 117.65 67.01 L 114.93 67.01 L 114.93 69.02 C 114.93 69.43 114.61 69.76 114.2 69.76 C 113.79 69.76 113.46 69.43 113.46 69.02 L 113.46 63.68 L 113.46 63.68 Z M 113.46 63.68" />
    <path fill="#2b3990" fill-rule="evenodd" d="M 120.77 66.37 L 120.77 66.35 C 120.77 64.45 122.27 62.89 124.34 62.89 C 126.41 62.89 127.89 64.43 127.89 66.33 L 127.89 66.35 C 127.89 68.26 126.39 69.82 124.32 69.82 C 122.25 69.82 120.77 68.28 120.77 66.37 L 120.77 66.37 Z M 126.35 66.37 L 126.35 66.35 C 126.35 65.21 125.51 64.25 124.32 64.25 C 123.13 64.25 122.31 65.19 122.31 66.33 L 122.31 66.35 C 122.31 67.5 123.15 68.46 124.34 68.46 C 125.53 68.46 126.35 67.52 126.35 66.37 L 126.35 66.37 Z M 126.35 66.37" />
    <path fill="#2b3990" fill-rule="evenodd" d="M 129.24 66.37 L 129.24 66.35 C 129.24 64.45 130.74 62.89 132.81 62.89 C 134.87 62.89 136.36 64.43 136.36 66.33 L 136.36 66.35 C 136.36 68.26 134.85 69.82 132.79 69.82 C 130.72 69.82 129.24 68.28 129.24 66.37 L 129.24 66.37 Z M 134.82 66.37 L 134.82 66.35 C 134.82 65.21 133.97 64.25 132.79 64.25 C 131.6 64.25 130.78 65.19 130.78 66.33 L 130.78 66.35 C 130.78 67.5 131.62 68.46 132.81 68.46 C 133.99 68.46 134.82 67.52 134.82 66.37 L 134.82 66.37 Z M 134.82 66.37" />
    <path fill="#2b3990" fill-rule="evenodd" d="M 138 63.68 C 138 63.27 138.33 62.95 138.74 62.95 C 139.15 62.95 139.47 63.27 139.47 63.68 L 139.47 68.36 L 142.2 68.36 C 142.57 68.36 142.87 68.66 142.87 69.03 C 142.87 69.41 142.57 69.7 142.2 69.7 L 138.74 69.7 C 138.32 69.7 138 69.38 138 68.97 L 138 63.68 L 138 63.68 Z M 138 63.68" />
    <path stroke-linejoin="miter" stroke-linecap="butt" stroke-width="3.75" stroke="#2b3990" fill="none" fill-rule="evenodd" d="M 129.09 79.2 L 122.8 119.88 L 122.8 159.99 L 135.98 159.99 L 135.98 119.88 L 129.09 79.2 Z M 129.09 79.2" />
    <path stroke-linejoin="miter" stroke-linecap="butt" stroke-width="3.75" stroke="#2b3990" fill="none" fill-rule="evenodd" d="M 153.55 79.2 L 147.26 119.88 L 147.26 159.99 L 160.44 159.99 L 160.44 119.88 L 153.55 79.2 Z M 153.55 79.2" />
    <path stroke-linejoin="miter" stroke-linecap="butt" stroke-width="3.75" stroke="#2b3990" fill="none" fill-rule="evenodd" d="M 135.98 135.31 L 141.51 125.02 L 147.26 135.31" />
    <path stroke-linejoin="miter" stroke-linecap="butt" stroke-width="3.5" stroke="#2b3990" fill="none" fill-rule="evenodd" d="M 26.69 168.48 C 33.74 168.48 33.74 173.59 40.79 173.59 C 47.83 173.59 47.83 168.48 54.88 168.48 C 61.93 168.48 61.93 173.59 68.98 173.59 C 76.03 173.59 76.03 168.48 83.07 168.48 C 90.12 168.48 90.12 173.59 97.17 173.59 C 104.22 173.59 104.22 168.48 111.27 168.48 C 118.32 168.48 118.32 173.59 125.37 173.59 C 132.42 173.59 132.42 168.48 139.47 168.48 C 146.52 168.48 146.52 173.59 153.57 173.59 C 160.62 173.59 160.62 168.48 167.67 168.48 C 174.72 168.48 174.72 173.59 181.77 173.59" />
    <path stroke-linejoin="miter" stroke-linecap="butt" stroke-width="4" stroke="#2b3990" fill="none" fill-rule="evenodd" d="M 181.77 159.99 L 26.77 159.99" />
    <path fill="#2b3990" fill-rule="evenodd" d="M 129.39 116.56 C 130.55 116.56 131.5 115.62 131.5 114.45 C 131.5 113.29 130.55 112.35 129.39 112.35 C 128.22 112.35 127.28 113.29 127.28 114.45 C 127.28 115.62 128.22 116.56 129.39 116.56 Z M 129.39 116.56" />
    <path fill="#2b3990" fill-rule="evenodd" d="M 127.57 126.47 C 128.17 126.47 128.67 125.98 128.67 125.37 C 128.67 124.76 128.17 124.27 127.57 124.27 C 126.96 124.27 126.46 124.76 126.46 125.37 C 126.46 125.98 126.96 126.47 127.57 126.47 Z M 127.57 126.47" />
    <path fill="#2b3990" fill-rule="evenodd" d="M 131.21 126.47 C 131.82 126.47 132.31 125.98 132.31 125.37 C 132.31 124.76 131.82 124.27 131.21 124.27 C 130.6 124.27 130.11 124.76 130.11 125.37 C 130.11 125.98 130.6 126.47 131.21 126.47 Z M 131.21 126.47" />
    <path fill="#2b3990" fill-rule="evenodd" d="M 153.85 116.56 C 155.01 116.56 155.95 115.62 155.95 114.45 C 155.95 113.29 155.01 112.35 153.85 112.35 C 152.68 112.35 151.74 113.29 151.74 114.45 C 151.74 115.62 152.68 116.56 153.85 116.56 Z M 153.85 116.56" />
    <path fill="#2b3990" fill-rule="evenodd" d="M 141.62 147.03 C 142.95 147.03 144.04 145.95 144.04 144.62 C 144.04 143.28 142.95 142.2 141.62 142.2 C 140.28 142.2 139.2 143.28 139.2 144.62 C 139.2 145.95 140.28 147.03 141.62 147.03 Z M 141.62 147.03" />
    <path fill="#2b3990" fill-rule="evenodd" d="M 127.57 150.96 L 131.21 150.96 L 131.21 159.99 L 127.57 159.99 L 127.57 150.96 Z M 127.57 150.96" />
    <path fill="#2b3990" fill-rule="evenodd" d="M 139.8 154.41 L 143.44 154.41 L 143.44 159.99 L 139.8 159.99 L 139.8 154.41 Z M 139.8 154.41" />
    <path fill="#2b3990" fill-rule="evenodd" d="M 128.29 145.62 L 130.49 145.62 L 130.49 148.67 L 128.29 148.67 L 128.29 145.62 Z M 128.29 145.62" />
    <path fill="#2b3990" fill-rule="evenodd" d="M 128.29 140.67 L 130.49 140.67 L 130.49 143.72 L 128.29 143.72 L 128.29 140.67 Z M 128.29 140.67" />
    <path fill="#2b3990" fill-rule="evenodd" d="M 126.47 125.37 L 128.67 125.37 L 128.67 135.13 L 126.47 135.13 L 126.47 125.37 Z M 126.47 125.37" />
    <path fill="#2b3990" fill-rule="evenodd" d="M 130.11 125.37 L 132.31 125.37 L 132.31 135.13 L 130.11 135.13 L 130.11 125.37 Z M 130.11 125.37" />
    <path fill="#2b3990" fill-rule="evenodd" d="M 152.03 126.47 C 152.63 126.47 153.13 125.98 153.13 125.37 C 153.13 124.76 152.63 124.27 152.03 124.27 C 151.42 124.27 150.93 124.76 150.93 125.37 C 150.93 125.98 151.42 126.47 152.03 126.47 Z M 152.03 126.47" />
    <path fill="#2b3990" fill-rule="evenodd" d="M 155.67 126.47 C 156.28 126.47 156.77 125.98 156.77 125.37 C 156.77 124.76 156.28 124.27 155.67 124.27 C 155.06 124.27 154.57 124.76 154.57 125.37 C 154.57 125.98 155.06 126.47 155.67 126.47 Z M 155.67 126.47" />
    <path fill="#2b3990" fill-rule="evenodd" d="M 150.93 125.37 L 153.13 125.37 L 153.13 135.13 L 150.93 135.13 L 150.93 125.37 Z M 150.93 125.37" />
    <path fill="#2b3990" fill-rule="evenodd" d="M 154.57 125.37 L 156.77 125.37 L 156.77 135.13 L 154.57 135.13 L 154.57 125.37 Z M 154.57 125.37" />
    <path fill="#2b3990" fill-rule="evenodd" d="M 152.75 145.62 L 154.95 145.62 L 154.95 148.67 L 152.75 148.67 L 152.75 145.62 Z M 152.75 145.62" />
    <path fill="#2b3990" fill-rule="evenodd" d="M 152.75 140.67 L 154.95 140.67 L 154.95 143.72 L 152.75 143.72 L 152.75 140.67 Z M 152.75 140.67" />
    <path fill="#2b3990" fill-rule="evenodd" d="M 152.03 150.96 L 155.67 150.96 L 155.67 159.99 L 152.03 159.99 L 152.03 150.96 Z M 152.03 150.96" />
    <path fill="#2b3990" fill-rule="evenodd" d="M 141.62 150.91 C 143.46 151.14 143.44 154.41 143.44 154.41 L 141.62 154.41" />
    <path fill="#2b3990" fill-rule="evenodd" d="M 141.62 150.91 C 139.78 151.14 139.8 154.41 139.8 154.41 L 141.62 154.41" />
    <path stroke-linejoin="miter" stroke-linecap="butt" stroke-width="4" stroke="#2b3990" fill="none" fill-rule="evenodd" d="M 26.77 113.96 L 36.7 110.34 L 49.96 99.4 L 60.85 99.4 L 78.44 90.92 L 86 90.92 L 98.19 93.46 L 107.27 96.88 L 122.8 99.4 L 125.36 100.01" />
    <path stroke-linejoin="miter" stroke-linecap="butt" stroke-width="4" stroke="#2b3990" fill="none" fill-rule="evenodd" d="M 133.85 101.57 L 141.62 104.64 L 148.65 107.38" />
    <path stroke-linejoin="miter" stroke-linecap="butt" stroke-width="4" stroke="#2b3990" fill="none" fill-rule="evenodd" d="M 160.08 112.68 L 167.31 116.25 L 181.77 112.89" />
    <path fill="#2b3990" fill-rule="evenodd" d="M 84.55 159.25 C 85.67 156.76 86.27 154.99 86.57 153.35 C 86.86 151.71 86.86 150.28 86.86 148.52 C 86.86 147.83 86.87 147.03 86.87 146.17 C 86.87 144.46 86.82 142.49 86.51 140.52 C 86.18 138.55 85.6 136.57 84.45 134.84 C 84.06 134.25 83.27 134.09 82.68 134.48 C 82.09 134.87 81.94 135.67 82.33 136.25 C 83.19 137.55 83.71 139.19 83.99 140.93 C 84.27 142.67 84.32 144.51 84.32 146.17 C 84.32 147.01 84.31 147.8 84.31 148.52 C 84.31 150.3 84.31 151.53 84.06 152.89 C 83.81 154.25 83.3 155.81 82.22 158.21 C 81.94 158.85 82.22 159.6 82.86 159.89 C 83.51 160.18 84.26 159.89 84.55 159.25 L 84.55 159.25 L 84.55 159.25 Z M 84.55 159.25" />
    <path fill="#2b3990" fill-rule="evenodd" d="M 76.37 136.25 C 76.62 136.64 76.89 137.27 77.09 138.05 C 77.4 139.22 77.58 140.7 77.69 142.19 C 77.79 143.68 77.81 145.18 77.81 146.43 C 77.81 147.26 77.8 147.98 77.8 148.53 C 77.8 149.86 77.8 151.47 77.6 153.18 C 77.41 154.89 77.02 156.69 76.26 158.36 C 75.97 159 76.26 159.76 76.9 160.05 C 77.55 160.34 78.3 160.05 78.59 159.41 C 79.49 157.41 79.92 155.36 80.14 153.47 C 80.35 151.59 80.35 149.86 80.35 148.53 C 80.35 148.01 80.36 147.28 80.36 146.43 C 80.36 144.73 80.32 142.53 80.09 140.43 C 79.97 139.38 79.8 138.35 79.56 137.41 C 79.31 136.46 78.98 135.59 78.49 134.84 C 78.1 134.25 77.31 134.09 76.72 134.48 C 76.13 134.87 75.98 135.67 76.37 136.25 L 76.37 136.25 L 76.37 136.25 Z M 76.37 136.25" />
    <path fill="#2b3990" fill-rule="evenodd" d="M 70.41 136.25 C 70.43 136.28 70.51 136.44 70.58 136.7 C 70.72 137.14 70.85 137.83 70.95 138.64 C 71.25 141.07 71.3 144.51 71.3 146.69 C 71.3 147.52 71.29 148.17 71.29 148.54 C 71.29 149.42 71.29 151.41 71.16 153.45 C 71.09 154.48 70.99 155.51 70.84 156.42 C 70.7 157.32 70.5 158.09 70.31 158.52 C 70.02 159.16 70.3 159.91 70.95 160.2 C 71.59 160.49 72.34 160.21 72.63 159.56 C 72.99 158.77 73.2 157.84 73.36 156.82 C 73.61 155.29 73.73 153.57 73.79 152.05 C 73.84 150.53 73.84 149.21 73.84 148.54 C 73.84 148.2 73.85 147.53 73.85 146.69 C 73.85 145 73.83 142.57 73.67 140.34 C 73.59 139.22 73.49 138.15 73.32 137.23 C 73.24 136.77 73.15 136.34 73.02 135.95 C 72.9 135.55 72.76 135.19 72.53 134.84 C 72.14 134.25 71.35 134.09 70.76 134.48 C 70.18 134.87 70.02 135.67 70.41 136.25 L 70.41 136.25 L 70.41 136.25 Z M 70.41 136.25" />
    <path fill="#2b3990" fill-rule="evenodd" d="M 64.45 136.25 L 65.08 135.83 L 64.37 136.12 C 64.38 136.14 64.4 136.18 64.45 136.25 L 65.08 135.83 L 64.37 136.12 L 64.6 136.03 L 64.37 136.11 L 64.37 136.12 L 64.6 136.03 L 64.37 136.11 C 64.37 136.11 64.42 136.32 64.46 136.59 C 64.53 137.07 64.59 137.81 64.63 138.66 C 64.77 141.23 64.79 144.86 64.79 146.95 C 64.79 147.78 64.78 148.36 64.78 148.55 C 64.78 148.99 64.78 151.33 64.71 153.71 C 64.68 154.9 64.63 156.09 64.56 157.04 C 64.52 157.52 64.47 157.93 64.43 158.24 C 64.41 158.39 64.38 158.51 64.36 158.6 L 64.34 158.68 L 64.34 158.69 L 64.63 158.8 L 64.35 158.67 L 64.34 158.69 L 64.63 158.8 L 64.35 158.67 C 64.06 159.31 64.34 160.07 64.99 160.36 C 65.63 160.65 66.38 160.36 66.67 159.72 C 66.76 159.52 66.81 159.35 66.85 159.17 C 66.93 158.84 66.98 158.48 67.02 158.05 C 67.18 156.59 67.26 154.42 67.3 152.49 C 67.34 150.57 67.34 148.91 67.34 148.55 C 67.34 148.38 67.34 147.78 67.34 146.95 C 67.34 145.27 67.33 142.6 67.25 140.23 C 67.21 139.05 67.16 137.95 67.08 137.06 C 67.04 136.62 66.99 136.23 66.93 135.89 C 66.9 135.72 66.87 135.56 66.82 135.4 C 66.77 135.24 66.73 135.08 66.57 134.84 C 66.18 134.25 65.39 134.09 64.8 134.48 C 64.22 134.87 64.06 135.67 64.45 136.25 L 64.45 136.25 L 64.45 136.25 Z M 64.45 136.25" />
    <path fill="#2b3990" fill-rule="evenodd" d="M 58.27 135.55 L 58.27 159.35 C 58.27 160.06 58.84 160.63 59.55 160.63 C 60.25 160.63 60.83 160.06 60.83 159.35 L 60.83 135.55 C 60.83 134.84 60.25 134.27 59.55 134.27 C 58.85 134.27 58.27 134.84 58.27 135.55" />
    <path fill="#2b3990" fill-rule="evenodd" d="M 34.76 135.02 C 33.64 137.51 33.04 139.29 32.74 140.92 C 32.44 142.56 32.45 143.99 32.45 145.75 C 32.45 146.45 32.43 147.24 32.43 148.1 C 32.43 149.82 32.48 151.78 32.8 153.75 C 33.12 155.72 33.71 157.71 34.86 159.43 C 35.25 160.02 36.04 160.18 36.63 159.79 C 37.21 159.4 37.37 158.61 36.98 158.02 C 36.12 156.72 35.6 155.09 35.32 153.34 C 35.04 151.6 34.98 149.77 34.98 148.1 C 34.98 147.27 35 146.48 35 145.75 C 35 143.97 35 142.74 35.25 141.38 C 35.5 140.02 36.01 138.46 37.08 136.07 C 37.37 135.43 37.09 134.67 36.44 134.38 C 35.8 134.09 35.05 134.38 34.76 135.02 L 34.76 135.02 L 34.76 135.02 Z M 34.76 135.02" />
    <path fill="#2b3990" fill-rule="evenodd" d="M 40.67 135.01 C 39.77 137 39.34 139.05 39.12 140.94 C 38.9 142.83 38.9 144.55 38.9 145.89 C 38.9 146.4 38.89 147.13 38.89 147.98 C 38.9 149.69 38.93 151.88 39.17 153.98 C 39.28 155.03 39.45 156.06 39.7 157.01 C 39.95 157.96 40.27 158.83 40.77 159.58 C 41.16 160.16 41.95 160.32 42.54 159.93 C 43.12 159.54 43.28 158.75 42.89 158.16 C 42.63 157.78 42.37 157.14 42.17 156.36 C 41.86 155.19 41.67 153.71 41.57 152.22 C 41.47 150.73 41.45 149.23 41.45 147.98 C 41.45 147.15 41.46 146.43 41.46 145.89 C 41.46 144.56 41.46 142.94 41.65 141.23 C 41.85 139.52 42.24 137.73 42.99 136.05 C 43.28 135.41 42.99 134.66 42.35 134.37 C 41.71 134.08 40.95 134.36 40.67 135.01 L 40.67 135.01 L 40.67 135.01 Z M 40.67 135.01" />
    <path fill="#2b3990" fill-rule="evenodd" d="M 46.57 134.99 C 46.22 135.78 46.01 136.71 45.84 137.73 C 45.6 139.26 45.48 140.98 45.42 142.51 C 45.36 144.03 45.36 145.35 45.36 146.02 C 45.36 146.36 45.35 147.02 45.35 147.87 C 45.35 149.56 45.38 151.99 45.53 154.22 C 45.61 155.33 45.72 156.4 45.88 157.32 C 45.96 157.79 46.06 158.21 46.18 158.61 C 46.3 159 46.44 159.36 46.67 159.71 C 47.06 160.3 47.86 160.46 48.44 160.07 C 49.03 159.68 49.19 158.89 48.8 158.3 C 48.78 158.28 48.69 158.11 48.62 157.86 C 48.48 157.42 48.35 156.72 48.25 155.92 C 47.95 153.49 47.9 150.05 47.91 147.87 C 47.91 147.03 47.91 146.38 47.91 146.01 C 47.91 145.13 47.91 143.15 48.05 141.1 C 48.11 140.08 48.21 139.04 48.36 138.14 C 48.5 137.24 48.7 136.46 48.9 136.04 C 49.19 135.39 48.9 134.64 48.26 134.35 C 47.62 134.06 46.86 134.35 46.57 134.99 L 46.57 134.99 L 46.57 134.99 Z M 46.57 134.99" />
    <path fill="#2b3990" fill-rule="evenodd" d="M 52.48 134.97 C 52.39 135.18 52.35 135.34 52.3 135.52 C 52.23 135.85 52.18 136.21 52.13 136.64 C 51.97 138.11 51.9 140.28 51.86 142.2 C 51.82 144.12 51.82 145.78 51.82 146.15 C 51.82 146.32 51.81 146.91 51.81 147.75 C 51.81 149.43 51.83 152.1 51.9 154.46 C 51.94 155.64 51.99 156.75 52.07 157.63 C 52.11 158.08 52.16 158.46 52.22 158.8 C 52.25 158.97 52.28 159.13 52.33 159.29 C 52.38 159.45 52.43 159.61 52.58 159.86 C 52.97 160.44 53.76 160.6 54.35 160.21 C 54.94 159.82 55.1 159.03 54.7 158.44 L 54.07 158.86 L 54.78 158.57 C 54.77 158.56 54.75 158.52 54.7 158.44 L 54.07 158.86 L 54.78 158.57 L 54.55 158.67 L 54.78 158.59 L 54.78 158.57 L 54.55 158.67 L 54.78 158.59 C 54.78 158.58 54.73 158.38 54.69 158.11 C 54.62 157.63 54.56 156.89 54.52 156.04 C 54.38 153.47 54.36 149.83 54.36 147.75 C 54.36 146.91 54.37 146.33 54.37 146.15 C 54.37 145.71 54.37 143.36 54.44 140.99 C 54.47 139.8 54.52 138.6 54.6 137.65 C 54.63 137.18 54.68 136.77 54.72 136.46 C 54.74 136.31 54.77 136.18 54.79 136.1 L 54.81 136.01 L 54.81 136 L 54.52 135.89 L 54.8 136.02 L 54.81 136 L 54.52 135.89 L 54.8 136.02 C 55.09 135.38 54.81 134.63 54.17 134.34 C 53.52 134.05 52.77 134.33 52.48 134.97 L 52.48 134.97 L 52.48 134.97 Z M 52.48 134.97" />
    <path fill="#2b3990" fill-rule="evenodd" d="M 58.27 135.48 L 58.27 159.29 C 58.27 159.99 58.84 160.56 59.55 160.56 C 60.25 160.56 60.83 159.99 60.83 159.29 L 60.83 135.48 C 60.83 134.78 60.25 134.21 59.55 134.21 C 58.85 134.21 58.27 134.78 58.27 135.48" />
    <path stroke-linejoin="miter" stroke-linecap="butt" stroke-width="3.5" stroke="#2b3990" fill="none" fill-rule="evenodd" d="M 70.92 119.92 L 70.92 108.65 L 79.01 108.65 L 79.01 114.82 L 87.21 114.82 L 90.48 109.5 L 93.11 114.82 L 100.47 114.82 L 100.47 120.72" />
    <path stroke-linejoin="miter" stroke-linecap="butt" stroke-width="3.5" stroke="#2b3990" fill="none" fill-rule="evenodd" d="M 62.61 120.72 L 67.23 120.27 L 72.88 121.86 L 78.68 119.27 L 82.05 121.86 L 85.03 120.56 L 88.62 121.86 L 93.3 119.27 L 95.81 121.86 L 104.46 120.27 L 107.1 120.72" />
    <path stroke-linejoin="miter" stroke-linecap="butt" stroke-width="3.5" stroke="#2b3990" fill="none" fill-rule="evenodd" d="M 85.3 81.61 L 85.3 90.92" />
    <path stroke-linejoin="miter" stroke-linecap="butt" stroke-width="3.5" stroke="#2b3990" fill="none" fill-rule="evenodd" d="M 163.85 81.61 C 168.94 81.61 170.38 86.26 170.38 86.26 C 170.38 86.26 172.33 81.61 177.33 81.61" />
    <path stroke-linejoin="miter" stroke-linecap="butt" stroke-width="3.5" stroke="#2b3990" fill="none" fill-rule="evenodd" d="M 170.88 93.48 C 174.84 93.48 175.96 97.09 175.96 97.09 C 175.96 97.09 177.47 93.48 181.35 93.48" />
</svg>